<mxfile host="app.diagrams.net" agent="Mozilla/5.0 (Windows NT 10.0; Win64; x64) AppleWebKit/537.36 (KHTML, like Gecko) Chrome/135.0.0.0 Safari/537.36" version="26.2.10">
  <diagram name="Page-1" id="2YBvvXClWsGukQMizWep">
    <mxGraphModel dx="2359" dy="1720" grid="1" gridSize="10" guides="1" tooltips="1" connect="1" arrows="1" fold="1" page="1" pageScale="1" pageWidth="850" pageHeight="1100" math="0" shadow="0">
      <root>
        <mxCell id="0" />
        <mxCell id="1" parent="0" />
        <mxCell id="aM9ryv3xv72pqoxQDRHE-1" value="System" style="shape=umlLifeline;perimeter=lifelinePerimeter;whiteSpace=wrap;html=1;container=0;dropTarget=0;collapsible=0;recursiveResize=0;outlineConnect=0;portConstraint=eastwest;newEdgeStyle={&quot;edgeStyle&quot;:&quot;elbowEdgeStyle&quot;,&quot;elbow&quot;:&quot;vertical&quot;,&quot;curved&quot;:0,&quot;rounded&quot;:0};strokeColor=#000000;" parent="1" vertex="1">
          <mxGeometry x="160" y="-80" width="100" height="650" as="geometry" />
        </mxCell>
        <mxCell id="aM9ryv3xv72pqoxQDRHE-2" value="" style="html=1;points=[];perimeter=orthogonalPerimeter;outlineConnect=0;targetShapes=umlLifeline;portConstraint=eastwest;newEdgeStyle={&quot;edgeStyle&quot;:&quot;elbowEdgeStyle&quot;,&quot;elbow&quot;:&quot;vertical&quot;,&quot;curved&quot;:0,&quot;rounded&quot;:0};strokeColor=#000000;fillColor=#FFFFFF;" parent="aM9ryv3xv72pqoxQDRHE-1" vertex="1">
          <mxGeometry x="45" y="310" width="10" height="290" as="geometry" />
        </mxCell>
        <mxCell id="aM9ryv3xv72pqoxQDRHE-5" value="Database" style="shape=umlLifeline;perimeter=lifelinePerimeter;whiteSpace=wrap;html=1;container=0;dropTarget=0;collapsible=0;recursiveResize=0;outlineConnect=0;portConstraint=eastwest;newEdgeStyle={&quot;edgeStyle&quot;:&quot;elbowEdgeStyle&quot;,&quot;elbow&quot;:&quot;vertical&quot;,&quot;curved&quot;:0,&quot;rounded&quot;:0};" parent="1" vertex="1">
          <mxGeometry x="350" y="-80" width="100" height="650" as="geometry" />
        </mxCell>
        <mxCell id="aM9ryv3xv72pqoxQDRHE-6" value="" style="html=1;points=[];perimeter=orthogonalPerimeter;outlineConnect=0;targetShapes=umlLifeline;portConstraint=eastwest;newEdgeStyle={&quot;edgeStyle&quot;:&quot;elbowEdgeStyle&quot;,&quot;elbow&quot;:&quot;vertical&quot;,&quot;curved&quot;:0,&quot;rounded&quot;:0};fillColor=#FFFFFF;" parent="aM9ryv3xv72pqoxQDRHE-5" vertex="1">
          <mxGeometry x="45" y="350" width="10" height="220" as="geometry" />
        </mxCell>
        <mxCell id="lfCmvOFRKrTYo205tbFT-2" value="" style="shape=umlLifeline;perimeter=lifelinePerimeter;whiteSpace=wrap;html=1;container=1;dropTarget=0;collapsible=0;recursiveResize=0;outlineConnect=0;portConstraint=eastwest;newEdgeStyle={&quot;curved&quot;:0,&quot;rounded&quot;:0};participant=umlActor;" vertex="1" parent="1">
          <mxGeometry x="-190" y="-150" width="20" height="720" as="geometry" />
        </mxCell>
        <mxCell id="lfCmvOFRKrTYo205tbFT-4" value="" style="html=1;points=[[0,0,0,0,5],[0,1,0,0,-5],[1,0,0,0,5],[1,1,0,0,-5]];perimeter=orthogonalPerimeter;outlineConnect=0;targetShapes=umlLifeline;portConstraint=eastwest;newEdgeStyle={&quot;curved&quot;:0,&quot;rounded&quot;:0};fillColor=#FFFFFF;" vertex="1" parent="lfCmvOFRKrTYo205tbFT-2">
          <mxGeometry x="5" y="70" width="10" height="520" as="geometry" />
        </mxCell>
        <mxCell id="lfCmvOFRKrTYo205tbFT-3" value="sd Login" style="shape=umlFrame;whiteSpace=wrap;html=1;pointerEvents=0;" vertex="1" parent="1">
          <mxGeometry x="-280" y="-220" width="940" height="810" as="geometry" />
        </mxCell>
        <mxCell id="lfCmvOFRKrTYo205tbFT-13" value="clicks Sign-in" style="html=1;verticalAlign=bottom;endArrow=block;curved=0;rounded=0;" edge="1" parent="1">
          <mxGeometry width="80" relative="1" as="geometry">
            <mxPoint x="-175" y="-50" as="sourcePoint" />
            <mxPoint x="19.999999999999773" y="-50" as="targetPoint" />
            <Array as="points" />
            <mxPoint as="offset" />
          </mxGeometry>
        </mxCell>
        <mxCell id="lfCmvOFRKrTYo205tbFT-14" value="Display Log-in Page" style="html=1;verticalAlign=bottom;endArrow=open;dashed=1;endSize=8;curved=0;rounded=0;" edge="1" parent="1" target="lfCmvOFRKrTYo205tbFT-4">
          <mxGeometry relative="1" as="geometry">
            <mxPoint x="30" y="40" as="sourcePoint" />
            <mxPoint x="-170" y="40" as="targetPoint" />
          </mxGeometry>
        </mxCell>
        <mxCell id="lfCmvOFRKrTYo205tbFT-15" value="enters login details" style="html=1;verticalAlign=bottom;endArrow=block;curved=0;rounded=0;entryX=-0.045;entryY=0.333;entryDx=0;entryDy=0;entryPerimeter=0;exitX=1.011;exitY=0.332;exitDx=0;exitDy=0;exitPerimeter=0;" edge="1" parent="1">
          <mxGeometry width="80" relative="1" as="geometry">
            <mxPoint x="-174.8900000000001" y="59.99999999999997" as="sourcePoint" />
            <mxPoint x="24.549999999999955" y="60.29000000000016" as="targetPoint" />
          </mxGeometry>
        </mxCell>
        <mxCell id="lfCmvOFRKrTYo205tbFT-17" value="checkUser()" style="html=1;verticalAlign=bottom;endArrow=block;curved=0;rounded=0;" edge="1" parent="1" target="lfCmvOFRKrTYo205tbFT-103">
          <mxGeometry x="-0.0023" width="80" relative="1" as="geometry">
            <mxPoint x="217" y="260" as="sourcePoint" />
            <mxPoint x="300" y="260" as="targetPoint" />
            <mxPoint as="offset" />
          </mxGeometry>
        </mxCell>
        <mxCell id="lfCmvOFRKrTYo205tbFT-21" value="recognized" style="html=1;verticalAlign=bottom;endArrow=open;dashed=1;endSize=8;curved=0;rounded=0;exitX=-0.213;exitY=0.9;exitDx=0;exitDy=0;exitPerimeter=0;" edge="1" parent="1">
          <mxGeometry relative="1" as="geometry">
            <mxPoint x="392.8699999999999" y="389.57999999999976" as="sourcePoint" />
            <mxPoint x="215" y="389.57999999999976" as="targetPoint" />
          </mxGeometry>
        </mxCell>
        <mxCell id="lfCmvOFRKrTYo205tbFT-23" value="Interface(UI)" style="shape=umlLifeline;perimeter=lifelinePerimeter;whiteSpace=wrap;html=1;container=0;dropTarget=0;collapsible=0;recursiveResize=0;outlineConnect=0;portConstraint=eastwest;newEdgeStyle={&quot;curved&quot;:0,&quot;rounded&quot;:0};" vertex="1" parent="1">
          <mxGeometry x="-20" y="-170" width="100" height="740" as="geometry" />
        </mxCell>
        <mxCell id="lfCmvOFRKrTYo205tbFT-101" value="Display Log-in Page" style="html=1;align=left;spacingLeft=2;endArrow=block;rounded=0;edgeStyle=orthogonalEdgeStyle;curved=0;rounded=0;" edge="1" target="lfCmvOFRKrTYo205tbFT-100" parent="lfCmvOFRKrTYo205tbFT-23">
          <mxGeometry relative="1" as="geometry">
            <mxPoint x="55" y="140" as="sourcePoint" />
            <Array as="points">
              <mxPoint x="55" y="160" />
              <mxPoint x="80" y="160" />
              <mxPoint x="80" y="180" />
            </Array>
          </mxGeometry>
        </mxCell>
        <mxCell id="lfCmvOFRKrTYo205tbFT-100" value="" style="html=1;points=[[0,0,0,0,5],[0,1,0,0,-5],[1,0,0,0,5],[1,1,0,0,-5]];perimeter=orthogonalPerimeter;outlineConnect=0;targetShapes=umlLifeline;portConstraint=eastwest;newEdgeStyle={&quot;curved&quot;:0,&quot;rounded&quot;:0};" vertex="1" parent="lfCmvOFRKrTYo205tbFT-23">
          <mxGeometry x="50" y="170" width="10" height="20" as="geometry" />
        </mxCell>
        <mxCell id="lfCmvOFRKrTYo205tbFT-27" value="clicks log-in" style="html=1;verticalAlign=bottom;endArrow=block;curved=0;rounded=0;entryX=0.039;entryY=0.353;entryDx=0;entryDy=0;entryPerimeter=0;" edge="1" parent="1">
          <mxGeometry width="80" relative="1" as="geometry">
            <mxPoint x="-175" y="214.84000000000012" as="sourcePoint" />
            <mxPoint x="25.389999999999873" y="214.84000000000012" as="targetPoint" />
          </mxGeometry>
        </mxCell>
        <mxCell id="lfCmvOFRKrTYo205tbFT-28" value="log in" style="html=1;verticalAlign=bottom;endArrow=block;curved=0;rounded=0;exitX=1.143;exitY=0.356;exitDx=0;exitDy=0;exitPerimeter=0;" edge="1" parent="1">
          <mxGeometry width="80" relative="1" as="geometry">
            <mxPoint x="36.430000000000064" y="229.70999999999998" as="sourcePoint" />
            <mxPoint x="205" y="229.70999999999998" as="targetPoint" />
          </mxGeometry>
        </mxCell>
        <mxCell id="lfCmvOFRKrTYo205tbFT-31" value="logged in" style="html=1;verticalAlign=bottom;endArrow=open;dashed=1;endSize=8;curved=0;rounded=0;" edge="1" parent="1">
          <mxGeometry relative="1" as="geometry">
            <mxPoint x="205" y="399.76" as="sourcePoint" />
            <mxPoint x="35" y="399.76" as="targetPoint" />
            <mxPoint as="offset" />
          </mxGeometry>
        </mxCell>
        <mxCell id="lfCmvOFRKrTYo205tbFT-34" value="" style="html=1;points=[[0,0,0,0,5],[0,1,0,0,-5],[1,0,0,0,5],[1,1,0,0,-5]];perimeter=orthogonalPerimeter;outlineConnect=0;targetShapes=umlLifeline;portConstraint=eastwest;newEdgeStyle={&quot;curved&quot;:0,&quot;rounded&quot;:0};fillColor=#FFFFFF;" vertex="1" parent="1">
          <mxGeometry x="400" y="310" width="10" height="40" as="geometry" />
        </mxCell>
        <mxCell id="lfCmvOFRKrTYo205tbFT-35" value="checks if user exist" style="html=1;align=left;spacingLeft=2;endArrow=block;rounded=0;edgeStyle=orthogonalEdgeStyle;curved=0;rounded=0;" edge="1" target="lfCmvOFRKrTYo205tbFT-34" parent="1">
          <mxGeometry relative="1" as="geometry">
            <mxPoint x="405" y="290" as="sourcePoint" />
            <Array as="points">
              <mxPoint x="435" y="320" />
            </Array>
          </mxGeometry>
        </mxCell>
        <mxCell id="lfCmvOFRKrTYo205tbFT-37" value="not recognized" style="html=1;verticalAlign=bottom;endArrow=open;dashed=1;endSize=8;curved=0;rounded=0;" edge="1" parent="1">
          <mxGeometry relative="1" as="geometry">
            <mxPoint x="395" y="480" as="sourcePoint" />
            <mxPoint x="215" y="480" as="targetPoint" />
          </mxGeometry>
        </mxCell>
        <mxCell id="lfCmvOFRKrTYo205tbFT-38" value="wrong email or password" style="html=1;verticalAlign=bottom;endArrow=open;dashed=1;endSize=8;curved=0;rounded=0;" edge="1" parent="1">
          <mxGeometry relative="1" as="geometry">
            <mxPoint x="205" y="500" as="sourcePoint" />
            <mxPoint x="35" y="500" as="targetPoint" />
            <mxPoint as="offset" />
          </mxGeometry>
        </mxCell>
        <mxCell id="lfCmvOFRKrTYo205tbFT-55" value="alt" style="shape=umlFrame;whiteSpace=wrap;html=1;pointerEvents=0;recursiveResize=0;container=1;collapsible=0;width=80;height=20;" vertex="1" parent="1">
          <mxGeometry x="-140" y="120" width="730" height="420" as="geometry" />
        </mxCell>
        <mxCell id="lfCmvOFRKrTYo205tbFT-56" value="[isvalid = false]" style="text;html=1;" vertex="1" parent="lfCmvOFRKrTYo205tbFT-55">
          <mxGeometry width="100" height="20" relative="1" as="geometry">
            <mxPoint x="20" y="40" as="offset" />
          </mxGeometry>
        </mxCell>
        <mxCell id="lfCmvOFRKrTYo205tbFT-57" value="[isvalid true]" style="line;strokeWidth=1;dashed=1;labelPosition=center;verticalLabelPosition=bottom;align=left;verticalAlign=top;spacingLeft=20;spacingTop=15;html=1;whiteSpace=wrap;" vertex="1" parent="lfCmvOFRKrTYo205tbFT-55">
          <mxGeometry y="80" width="710" height="10" as="geometry" />
        </mxCell>
        <mxCell id="lfCmvOFRKrTYo205tbFT-22" value="Display error message" style="html=1;verticalAlign=bottom;endArrow=open;dashed=1;endSize=8;curved=0;rounded=0;entryX=1.08;entryY=0.916;entryDx=0;entryDy=0;entryPerimeter=0;" edge="1" parent="lfCmvOFRKrTYo205tbFT-55">
          <mxGeometry x="-0.0025" relative="1" as="geometry">
            <mxPoint x="165" y="390.00000000000017" as="sourcePoint" />
            <mxPoint x="-34.19999999999982" y="390.00000000000017" as="targetPoint" />
            <mxPoint as="offset" />
          </mxGeometry>
        </mxCell>
        <mxCell id="lfCmvOFRKrTYo205tbFT-36" value="Redirect to Dashboard Page" style="html=1;verticalAlign=bottom;endArrow=open;dashed=1;endSize=8;curved=0;rounded=0;entryX=1.179;entryY=0.643;entryDx=0;entryDy=0;entryPerimeter=0;" edge="1" parent="lfCmvOFRKrTYo205tbFT-55">
          <mxGeometry x="0.1604" relative="1" as="geometry">
            <mxPoint x="165" y="290" as="sourcePoint" />
            <mxPoint x="-33.210000000000264" y="290.3600000000001" as="targetPoint" />
            <Array as="points">
              <mxPoint x="70" y="290" />
            </Array>
            <mxPoint as="offset" />
          </mxGeometry>
        </mxCell>
        <mxCell id="lfCmvOFRKrTYo205tbFT-53" value="invalidfield" style="html=1;align=left;spacingLeft=2;endArrow=block;rounded=0;edgeStyle=orthogonalEdgeStyle;curved=0;rounded=0;" edge="1" parent="lfCmvOFRKrTYo205tbFT-55">
          <mxGeometry relative="1" as="geometry">
            <mxPoint x="175" y="20.000000000000227" as="sourcePoint" />
            <Array as="points">
              <mxPoint x="205" y="20" />
              <mxPoint x="205" y="50" />
              <mxPoint x="180" y="50" />
            </Array>
            <mxPoint x="180" y="40" as="targetPoint" />
          </mxGeometry>
        </mxCell>
        <mxCell id="lfCmvOFRKrTYo205tbFT-104" value="Authenticate()" style="html=1;verticalAlign=bottom;endArrow=block;curved=0;rounded=0;" edge="1" parent="lfCmvOFRKrTYo205tbFT-55" target="aM9ryv3xv72pqoxQDRHE-6">
          <mxGeometry width="80" relative="1" as="geometry">
            <mxPoint x="450" y="150" as="sourcePoint" />
            <mxPoint x="540" y="150" as="targetPoint" />
          </mxGeometry>
        </mxCell>
        <mxCell id="lfCmvOFRKrTYo205tbFT-40" value="alt" style="shape=umlFrame;whiteSpace=wrap;html=1;pointerEvents=0;recursiveResize=0;container=0;collapsible=0;width=60;height=20;" vertex="1" parent="lfCmvOFRKrTYo205tbFT-55">
          <mxGeometry x="408.75" y="160" width="321.25" height="230" as="geometry" />
        </mxCell>
        <mxCell id="lfCmvOFRKrTYo205tbFT-41" value="[user exists&lt;span style=&quot;background-color: transparent; color: light-dark(rgb(0, 0, 0), rgb(255, 255, 255));&quot;&gt;]&lt;/span&gt;" style="text;html=1;" vertex="1" parent="lfCmvOFRKrTYo205tbFT-55">
          <mxGeometry x="278.75" y="300" width="100" height="20" as="geometry">
            <mxPoint x="10" y="20" as="offset" />
          </mxGeometry>
        </mxCell>
        <mxCell id="lfCmvOFRKrTYo205tbFT-42" value="[else&lt;span style=&quot;background-color: light-dark(#ffffff, var(--ge-dark-color, #121212)); color: light-dark(rgb(0, 0, 0), rgb(255, 255, 255));&quot;&gt;]&lt;/span&gt;" style="line;strokeWidth=1;dashed=1;labelPosition=center;verticalLabelPosition=bottom;align=left;verticalAlign=top;spacingLeft=20;spacingTop=15;html=1;whiteSpace=wrap;" vertex="1" parent="lfCmvOFRKrTYo205tbFT-55">
          <mxGeometry x="408.75" y="285" width="280" height="10" as="geometry" />
        </mxCell>
        <mxCell id="lfCmvOFRKrTYo205tbFT-20" value="return status" style="html=1;verticalAlign=bottom;endArrow=open;dashed=1;endSize=8;curved=0;rounded=0;exitX=1;exitY=1;exitDx=0;exitDy=-5;exitPerimeter=0;" edge="1" parent="lfCmvOFRKrTYo205tbFT-55">
          <mxGeometry x="0.037" y="40" relative="1" as="geometry">
            <mxPoint x="553.75" y="219.99999999999977" as="sourcePoint" />
            <mxPoint x="543.75" y="255" as="targetPoint" />
            <Array as="points">
              <mxPoint x="598.75" y="220" />
              <mxPoint x="598.75" y="255" />
              <mxPoint x="578.75" y="255" />
            </Array>
            <mxPoint as="offset" />
          </mxGeometry>
        </mxCell>
        <mxCell id="lfCmvOFRKrTYo205tbFT-24" value="" style="html=1;points=[[0,0,0,0,5],[0,1,0,0,-5],[1,0,0,0,5],[1,1,0,0,-5]];perimeter=orthogonalPerimeter;outlineConnect=0;targetShapes=umlLifeline;portConstraint=eastwest;newEdgeStyle={&quot;curved&quot;:0,&quot;rounded&quot;:0};fillColor=#FFFFFF;" vertex="1" parent="1">
          <mxGeometry x="25" y="-70" width="10" height="590" as="geometry" />
        </mxCell>
        <mxCell id="lfCmvOFRKrTYo205tbFT-49" value="validatefiled" style="html=1;align=left;spacingLeft=2;endArrow=block;rounded=0;edgeStyle=orthogonalEdgeStyle;curved=0;rounded=0;entryX=1;entryY=0;entryDx=0;entryDy=5;entryPerimeter=0;" edge="1" target="lfCmvOFRKrTYo205tbFT-48" parent="1" source="lfCmvOFRKrTYo205tbFT-48">
          <mxGeometry relative="1" as="geometry">
            <mxPoint x="35" y="30" as="sourcePoint" />
            <Array as="points">
              <mxPoint x="35" y="50" />
              <mxPoint x="65" y="50" />
              <mxPoint x="65" y="65" />
            </Array>
            <mxPoint x="40" y="60" as="targetPoint" />
          </mxGeometry>
        </mxCell>
        <mxCell id="lfCmvOFRKrTYo205tbFT-48" value="" style="html=1;points=[[0,0,0,0,5],[0,1,0,0,-5],[1,0,0,0,5],[1,1,0,0,-5]];perimeter=orthogonalPerimeter;outlineConnect=0;targetShapes=umlLifeline;portConstraint=eastwest;newEdgeStyle={&quot;curved&quot;:0,&quot;rounded&quot;:0};" vertex="1" parent="1">
          <mxGeometry x="30" y="60" width="10" height="20" as="geometry" />
        </mxCell>
        <mxCell id="lfCmvOFRKrTYo205tbFT-51" value="isvalid" style="html=1;verticalAlign=bottom;endArrow=open;dashed=1;endSize=8;curved=0;rounded=0;exitX=1;exitY=1;exitDx=0;exitDy=-5;exitPerimeter=0;entryX=1.147;entryY=0.276;entryDx=0;entryDy=0;entryPerimeter=0;" edge="1" parent="1" source="lfCmvOFRKrTYo205tbFT-48" target="lfCmvOFRKrTYo205tbFT-24">
          <mxGeometry relative="1" as="geometry">
            <mxPoint x="180" y="170" as="sourcePoint" />
            <mxPoint x="100" y="170" as="targetPoint" />
            <Array as="points">
              <mxPoint x="70" y="75" />
              <mxPoint x="70" y="90" />
            </Array>
          </mxGeometry>
        </mxCell>
        <mxCell id="lfCmvOFRKrTYo205tbFT-52" value="" style="html=1;points=[[0,0,0,0,5],[0,1,0,0,-5],[1,0,0,0,5],[1,1,0,0,-5]];perimeter=orthogonalPerimeter;outlineConnect=0;targetShapes=umlLifeline;portConstraint=eastwest;newEdgeStyle={&quot;curved&quot;:0,&quot;rounded&quot;:0};" vertex="1" parent="1">
          <mxGeometry x="30" y="160" width="10" height="20" as="geometry" />
        </mxCell>
        <mxCell id="lfCmvOFRKrTYo205tbFT-54" value="return" style="html=1;verticalAlign=bottom;endArrow=open;dashed=1;endSize=8;curved=0;rounded=0;exitX=1;exitY=1;exitDx=0;exitDy=-5;exitPerimeter=0;entryX=1.147;entryY=0.442;entryDx=0;entryDy=0;entryPerimeter=0;" edge="1" parent="1" source="lfCmvOFRKrTYo205tbFT-52" target="lfCmvOFRKrTYo205tbFT-24">
          <mxGeometry relative="1" as="geometry">
            <mxPoint x="35" y="90" as="sourcePoint" />
            <mxPoint x="35" y="105" as="targetPoint" />
            <Array as="points">
              <mxPoint x="60" y="175" />
              <mxPoint x="60" y="190" />
            </Array>
          </mxGeometry>
        </mxCell>
        <mxCell id="lfCmvOFRKrTYo205tbFT-102" value=":User" style="shape=umlLifeline;perimeter=lifelinePerimeter;whiteSpace=wrap;html=1;container=1;dropTarget=0;collapsible=0;recursiveResize=0;outlineConnect=0;portConstraint=eastwest;newEdgeStyle={&quot;curved&quot;:0,&quot;rounded&quot;:0};" vertex="1" parent="1">
          <mxGeometry x="260" y="50" width="100" height="280" as="geometry" />
        </mxCell>
        <mxCell id="lfCmvOFRKrTYo205tbFT-103" value="" style="html=1;points=[[0,0,0,0,5],[0,1,0,0,-5],[1,0,0,0,5],[1,1,0,0,-5]];perimeter=orthogonalPerimeter;outlineConnect=0;targetShapes=umlLifeline;portConstraint=eastwest;newEdgeStyle={&quot;curved&quot;:0,&quot;rounded&quot;:0};" vertex="1" parent="lfCmvOFRKrTYo205tbFT-102">
          <mxGeometry x="45" y="210" width="10" height="40" as="geometry" />
        </mxCell>
      </root>
    </mxGraphModel>
  </diagram>
</mxfile>
